Coordinates
version=1
nRows=19
nColumns=36
inDegrees=yes

Units are S.I. units (second, meters, Newtons, ...)
If the header above contains a line with 'inDegrees', this indicates whether rotational values are in degrees (yes) or radians (no).

endheader
time	pelvis_tilt	pelvis_list	pelvis_rotation	pelvis_tx	pelvis_ty	pelvis_tz	hip_flexion_r	hip_adduction_r	hip_rotation_r	knee_angle_r	knee_angle_r_beta	ankle_angle_r	subtalar_angle_r	mtp_angle_r	hip_flexion_l	hip_adduction_l	hip_rotation_l	knee_angle_l	knee_angle_l_beta	ankle_angle_l	subtalar_angle_l	mtp_angle_l	lumbar_extension	lumbar_bending	lumbar_rotation	arm_flex_r	arm_add_r	arm_rot_r	elbow_flex_r	pro_sup_r	arm_flex_l	arm_add_l	arm_rot_l	elbow_flex_l	pro_sup_l
      5.98333330	    -14.61756676	      1.14711372	      1.88880061	      0.08133049	      1.09833963	      0.08585104	     31.04346103	     -1.69841171	      3.55620649	     22.22964525	      0.38798050	     14.73802925	     -9.43447252	     -7.49999987	     31.40874167	      0.98939793	      0.75272782	     24.91294729	      0.43481296	      8.59687746	    -12.70334257	     -7.49999987	     -6.53207294	     -1.17718215	     -0.04586956	     27.87825346	     -0.69022699	     17.80602454	     21.14056806	     76.99023878	     25.16056204	     -3.96275374	     13.61341235	     18.79612490	     54.90392047
      6.00000000	    -14.91256052	      1.13197313	      1.59349502	      0.08536668	      1.08266543	      0.09599163	     31.27868740	     -1.24897874	      4.07058756	     22.92785649	      0.40016659	     15.61986099	     -9.70281361	     -7.49999987	     31.56547671	      0.67592010	      0.87507255	     25.32818249	      0.44206018	     10.04709035	    -11.97272780	     -7.49999987	     -5.40675610	     -1.21877405	      0.79751567	     23.54550219	     -2.35521991	     18.30988814	     17.02819626	     79.06529390	     20.11305925	     -5.76517512	     11.95531514	     14.31172181	     55.06094234
      6.01666670	    -15.47596743	      1.19353543	      1.86048219	      0.08841631	      1.07917209	      0.09038014	     32.04759416	     -1.26788298	      4.52871144	     23.83986791	      0.41608419	     16.65759154	    -10.09619229	     -7.49999987	     32.21051672	      0.92291241	      1.39635662	     26.04431798	      0.45455910	     11.27818345	    -11.98673117	     -7.49999987	     -4.12943686	     -1.01163835	     -0.03642415	     18.79885613	     -4.37983390	     13.33828478	     13.92319778	     98.64294067	     14.09799512	     -5.23647633	    -13.97616787	     14.24333041	     80.80386808
      6.03333330	    -16.24924018	      1.22834244	      2.14897894	      0.09344400	      1.07658678	      0.08538010	     32.91778170	     -1.41679759	      4.91336328	     24.59627318	      0.42928595	     17.68871149	     -9.90175001	     -7.49999987	     32.98914800	      1.30939973	      2.02247341	     26.65757165	      0.46526240	     12.47954624	    -12.38950021	     -7.49999987	     -2.38503174	     -0.72811840	     -1.01260610	     14.34579863	     -6.17719464	     12.68625125	     11.05899331	     98.63342015	      9.74840973	     -4.70910084	    -29.10534461	     13.59521872	     92.01234508
      6.05000000	    -17.19162385	      1.19316729	      2.23437744	      0.09241317	      1.07493267	      0.08692033	     33.91378294	     -1.47065049	      5.09351192	     25.03863516	      0.43700662	     18.43451961	     -9.93932897	     -7.49999987	     34.04738750	      1.45532399	      2.42604882	     27.01793479	      0.47155192	     13.23769015	    -13.02641305	     -7.49999987	     -0.69848503	     -0.35457561	     -1.01883006	     10.67759429	     -7.16903513	      9.03996497	      9.42690732	     97.74248090	      6.70731435	     -4.90613937	    -38.12230843	     11.75160032	     92.07777398
      6.06666670	    -17.96051705	      1.01698139	      2.16467968	      0.08659267	      1.08227321	      0.09065526	     34.30619812	     -1.31466261	      5.13426954	     24.65429832	      0.43029868	     18.59964638	    -10.29051695	     -7.49999987	     34.71594337	      1.18963818	      2.54759314	     26.42631164	      0.46122615	     13.28616444	    -13.40302393	     -7.49999987	      0.43118983	      0.06862234	     -1.39160201	      8.11740934	     -7.78873698	      5.74773454	      8.05366419	    100.13322447	      4.00977673	     -5.08399163	    -52.30454236	     11.00610480	    101.98975986
      6.08333330	    -18.37373181	      0.93020492	      2.06053074	      0.08052209	      1.08410783	      0.09258090	     34.40081105	     -1.15985270	      4.87472841	     23.87061446	      0.41662082	     18.38381278	    -10.41919828	     -7.49999987	     35.14938646	      1.06159630	      2.78936108	     25.93918828	      0.45272424	     12.93930333	    -13.07858442	     -7.49999987	      0.67071049	      0.20171851	     -1.36359065	      5.68269155	     -8.35893710	      5.39343176	      6.74856253	    100.06539706	      1.35495546	     -6.28718255	    -53.07926057	      9.96439917	    101.87918268
      6.10000000	    -19.16235709	      0.93468843	      2.02223403	      0.07381886	      1.08890143	      0.09259593	     35.27044153	     -1.02523154	      4.99036046	     23.19681036	      0.40486072	     17.49464408	    -11.15072876	     -7.49999987	     36.31051563	      1.03861530	      2.71102656	     25.78338161	      0.45000490	     11.93426036	    -13.35413596	     -7.49999987	      1.34581309	      0.30116563	     -1.87613394	      3.38695053	     -8.64955424	      2.68441146	      5.05074294	     99.58252888	     -0.66205227	     -7.68564708	    -57.81998397	      7.19306700	    101.26391197
      6.11666670	    -18.86608613	      1.02848098	      1.72610322	      0.07087423	      1.09668509	      0.08978387	     34.79952240	     -1.01150627	      4.73121153	     22.23612977	      0.38809368	     16.51989326	    -10.88947135	     -7.49999987	     35.94955551	      1.01321190	      2.36911746	     24.86276692	      0.43393714	     10.56459204	    -13.42400415	     -7.49999987	      0.45748002	      0.33760867	     -2.34050090	      1.08755796	     -9.19721179	     -5.62354011	      5.06316273	    104.21547406	     -3.13796747	     -7.42318308	    -75.98541517	      7.88487864	    107.67562381
      6.13333330	    -18.46365156	      1.05385901	      1.61675307	      0.07168483	      1.09932649	      0.08865995	     33.99329025	     -1.12250772	      4.30129382	     21.22012596	      0.37036107	     15.43673841	    -10.64738118	     -7.49999987	     35.36445331	      1.04356592	      2.22393849	     24.13751868	      0.42127917	      9.29332854	    -13.66144214	     -7.49999987	     -0.29076184	      0.49107633	     -2.46305049	     -1.42211624	    -10.12904798	     -9.25445775	      4.30102672	    105.45781470	     -6.06088303	     -8.02201940	    -82.69467743	      7.51948138	    109.44405821
      6.15000000	    -18.04802081	      1.06748223	      1.52929958	      0.07123096	      1.09979333	      0.08652276	     33.27433620	     -1.20267506	      3.91193697	     20.45941391	      0.35708414	     14.72040136	    -10.03059712	     -7.49999987	     34.71649464	      1.08136686	      1.70112632	     23.23544692	      0.40553505	      8.37179751	    -14.04040855	     -7.49999987	     -1.02245732	      0.96765339	     -2.57098584	     -3.83658082	    -11.39025809	    -10.08724819	      3.42579078	    102.64835535	     -9.33534458	     -8.56551132	    -84.09971427	      6.34727120	    107.10022685
      6.16666670	    -17.60165521	      1.18295104	      1.48873398	      0.07331823	      1.10073646	      0.08544185	     32.57880287	     -1.54358188	      3.25753897	     19.65623208	      0.34306597	     14.21552178	     -9.20258167	     -7.49999987	     33.94706522	      1.34043765	      1.28650280	     22.58035049	      0.39410146	      7.51283681	    -14.42410813	     -7.49999987	     -1.54735053	      1.13145630	     -2.13642730	     -6.57826970	    -12.46447360	    -18.08001530	      3.01372049	    106.04646065	    -11.96543777	     -8.71014235	    -90.96057909	      6.79847656	    111.05325720
      6.18333330	    -17.25333452	      1.34945372	      1.46980132	      0.07135235	      1.09656230	      0.08791713	     32.09318444	     -1.85553142	      2.86628491	     19.10795030	      0.33349665	     14.00070325	     -8.75912417	     -7.49999987	     33.42842111	      1.53056269	      0.67701052	     22.23404844	      0.38805735	      6.93766725	    -14.82394552	     -7.49999987	     -1.96355929	      1.14485699	     -1.59690253	     -9.41349476	    -13.38024079	    -19.83311822	      2.45635899	    106.17055300	    -14.79782654	     -9.08425690	    -89.29301618	      7.27534506	    111.36302854
      6.20000000	    -17.04256356	      1.47750155	      1.50955170	      0.07349688	      1.09960251	      0.08883635	     31.77993101	     -2.07009618	      2.70551495	     18.74017379	      0.32707774	     13.45246438	     -8.66568281	     -7.49999987	     33.06912341	      1.67231721	      0.52014324	     22.08700008	      0.38549087	      6.14697485	    -15.07417859	     -7.49999987	     -2.29268219	      1.17910301	     -1.23137652	    -11.94257406	    -14.14531193	    -26.56156568	      2.09231984	    107.44475436	    -17.24048091	     -9.66848863	    -79.22822859	      7.35841133	    111.07678379
      6.21666670	    -16.67272883	      1.60387003	      1.70977992	      0.07407514	      1.09914833	      0.09134063	     31.31101171	     -2.22151690	      2.40092175	     18.30378630	      0.31946134	     13.39601857	     -8.43398740	     -7.49999987	     32.61092074	      1.79467872	      0.25562595	     22.02694076	      0.38444264	      5.58199102	    -15.30309490	     -7.49999987	     -2.70035133	      1.11792458	     -1.17183407	    -14.02512938	    -14.64443601	    -26.31239486	      1.76819474	    103.15251239	    -18.76703761	     -9.73249431	    -77.00212208	      8.79024706	    106.89442545
      6.23333330	    -16.61914128	      1.64619478	      1.92829854	      0.07272260	      1.09801642	      0.09166285	     31.19298048	     -2.31810291	      2.14526635	     18.09270031	      0.31577719	     13.41829364	     -8.42440514	     -7.49999987	     32.57041989	      1.82939653	      0.31218004	     22.05396305	      0.38491427	      5.13938261	    -15.30202065	     -7.49999987	     -3.39608028	      1.07639646	     -2.17317710	    -15.49188159	    -15.22254194	    -23.26983358	      1.67840365	    108.73959886	    -25.40384617	    -12.44083131	    -12.97875805	     15.26276276	     85.95352140
      6.25000000	    -16.74309364	      1.60415017	      2.02777460	      0.07336403	      1.09671872	      0.09329725	     31.33681726	     -2.23561050	      1.86145255	     18.25605590	      0.31862828	     13.60627192	     -8.49794669	     -7.49999987	     32.69921968	      1.66566891	      0.02211034	     22.04769304	      0.38480484	      5.44629772	    -14.72514459	     -7.49999987	     -3.53716032	      1.25727607	     -1.99408576	    -17.57718405	    -15.17151749	    -22.99883695	      1.53033245	    106.40788225	    -26.76208632	    -12.72539240	    -12.64872293	     17.88577532	     84.74945404
      6.26666670	    -16.42811642	      1.78360063	      1.99104261	      0.07270906	      1.10025838	      0.09414467	     31.01219611	     -2.29532999	      1.85859799	     18.14669416	      0.31671956	     13.49560336	     -9.13511154	     -7.49999987	     32.21176065	      1.66413977	     -0.15238050	     21.68159502	      0.37841522	      4.94006030	    -14.88553340	     -7.49999987	     -4.31795814	      1.30028232	     -1.89777281	    -19.66558945	    -15.44115709	     -2.32506067	      1.97073217	    107.76772041	    -28.96084748	    -15.15959250	      4.22058898	     23.82349383	     76.79618186
      6.28333330	    -16.15824969	      1.86665003	      2.02315758	      0.07234104	      1.09989526	      0.09460677	     30.74214913	     -2.21023493	      2.04300737	     17.91498154	      0.31267541	     13.73097740	     -8.90385931	     -7.49999987	     31.86716719	      1.60076667	     -0.36269627	     21.32556927	      0.37220140	      4.91006011	    -14.80743199	     -7.49999987	     -4.85310089	      1.30528740	     -1.81113777	    -20.85023551	    -15.20383971	      0.77281528	      2.17992564	    101.65242264	    -30.04312896	    -15.45061255	      4.73131478	     27.45839467	     76.23216071
